# Blender v2.79 (sub 0) OBJ File: ''
# www.blender.org
mtllib arm.mtl
o N00b4
v -6.139172 1.825527 1.734397
v -6.139172 -0.044473 1.734396
v -6.139172 -0.044473 0.864396
v -6.139172 1.825527 0.864397
v -6.204172 1.890527 1.734397
v -6.204172 1.825526 1.799397
v -6.204172 -0.044473 1.799396
v -6.204172 -0.109473 1.734396
v -6.204172 -0.109473 0.864396
v -6.204172 -0.044473 0.799396
v -6.204172 1.825527 0.799397
v -6.204172 1.890527 0.864397
v -6.204172 1.890527 1.734397
v -7.074172 1.890527 1.734397
v -7.074172 1.825526 1.799397
v -6.204172 1.825526 1.799397
v -7.074172 -0.044473 1.799396
v -6.204172 -0.044473 1.799396
v -7.074172 -0.109473 1.734396
v -6.204172 -0.109473 1.734396
v -6.204172 -0.109473 1.734396
v -7.074172 -0.109473 1.734396
v -7.074172 -0.109473 0.864396
v -6.204172 -0.109473 0.864396
v -6.204172 -0.109473 0.864396
v -7.074172 -0.109473 0.864396
v -7.074172 -0.044473 0.799396
v -7.074172 1.825527 0.799397
v -7.074172 1.890527 0.864397
v -6.204172 1.890527 0.864397
v -6.204172 1.890527 0.864397
v -7.074172 1.890527 0.864397
v -7.074172 1.890527 1.734397
v -6.204172 1.890527 1.734397
v -7.074172 1.890527 1.734397
v -7.139172 1.825527 1.734397
v -7.139172 -0.044473 1.734396
v -7.074172 -0.109473 1.734396
v -7.139172 -0.044473 0.864396
v -7.074172 -0.109473 0.864396
v -7.139172 1.825527 0.864397
v -7.074172 1.890527 0.864397
vt 0.262200 0.871100
vt 0.171400 0.871100
vt 0.171400 0.753900
vt 0.262200 0.753900
vt 0.265100 0.871100
vt 0.262200 0.878900
vt 0.171400 0.878900
vt 0.168500 0.871100
vt 0.168500 0.753900
vt 0.171400 0.746100
vt 0.262200 0.746100
vt 0.265100 0.753900
vt 0.265100 0.378900
vt 0.265100 0.496100
vt 0.262200 0.496100
vt 0.262200 0.378900
vt 0.171400 0.496100
vt 0.171400 0.378900
vt 0.168500 0.496100
vt 0.168500 0.378900
vt 0.602100 0.238300
vt 0.602100 0.355500
vt 0.558100 0.355500
vt 0.558100 0.238300
vt 0.168500 0.746100
vt 0.168500 0.628900
vt 0.171400 0.628900
vt 0.262200 0.628900
vt 0.265100 0.628900
vt 0.265100 0.746100
vt 0.663600 0.355500
vt 0.663600 0.238300
vt 0.707500 0.238300
vt 0.707500 0.355500
vt 0.265100 0.503900
vt 0.262200 0.503900
vt 0.171400 0.503900
vt 0.168500 0.503900
vt 0.171400 0.621100
vt 0.168500 0.621100
vt 0.262200 0.621100
vt 0.265100 0.621100
vn 1.0000 -0.0000 0.0000
vn 0.0000 1.0000 -0.0000
vn -0.0000 0.0000 1.0000
vn 0.0000 -1.0000 -0.0000
vn 0.0000 -0.0000 -1.0000
vn -0.0004 1.0000 -0.0000
vn -0.0002 1.0000 -0.0000
vn -1.0000 -0.0000 -0.0000
usemtl Material.002
s 1
f 1/1/1 2/2/1 3/3/1
f 1/1/1 3/3/1 4/4/1
f 1/1/1 5/5/2 6/6/3
f 1/1/1 6/6/3 7/7/3
f 1/1/1 7/7/3 2/2/1
f 2/2/1 7/7/3 8/8/4
f 2/2/1 8/8/4 9/9/4
f 2/2/1 9/9/4 3/3/1
f 3/3/1 9/9/4 10/10/5
f 3/3/1 10/10/5 11/11/5
f 3/3/1 11/11/5 4/4/1
f 4/4/1 11/11/5 12/12/2
f 4/4/1 12/12/2 5/5/2
f 4/4/1 5/5/2 1/1/1
f 13/13/2 14/14/6 15/15/3
f 13/13/2 15/15/3 16/16/3
f 16/16/3 15/15/3 17/17/3
f 16/16/3 17/17/3 18/18/3
f 18/18/3 17/17/3 19/19/4
f 18/18/3 19/19/4 20/20/4
f 21/21/4 22/22/4 23/23/4
f 21/21/4 23/23/4 24/24/4
f 25/25/4 26/26/4 27/27/5
f 25/25/4 27/27/5 10/10/5
f 10/10/5 27/27/5 28/28/5
f 10/10/5 28/28/5 11/11/5
f 11/11/5 28/28/5 29/29/2
f 11/11/5 29/29/2 30/30/7
f 31/31/2 32/32/2 33/33/2
f 31/31/2 33/33/2 34/34/2
f 35/35/2 36/36/8 15/15/3
f 15/15/3 36/36/8 37/37/8
f 15/15/3 37/37/8 17/17/3
f 17/17/3 37/37/8 38/38/4
f 38/38/4 37/37/8 39/39/8
f 38/38/4 39/39/8 40/40/4
f 40/40/4 39/39/8 27/27/5
f 27/27/5 39/39/8 41/41/8
f 27/27/5 41/41/8 28/28/5
f 28/28/5 41/41/8 42/42/2
f 42/42/2 41/41/8 36/36/8
f 42/42/2 36/36/8 35/35/2
f 41/41/8 39/39/8 37/37/8
f 41/41/8 37/37/8 36/36/8
